<?xml version="1.0" standalone="no"?>
<!DOCTYPE svg PUBLIC "-//W3C//DTD SVG 20010904//EN"
 "http://www.w3.org/TR/2001/REC-SVG-20010904/DTD/svg10.dtd">
<svg version="1.0" xmlns="http://www.w3.org/2000/svg"
 width="240.000000pt" height="240.000000pt" viewBox="0 0 240.000000 240.000000"
 preserveAspectRatio="xMidYMid meet">
<metadata>
Created by potrace 1.14, written by Peter Selinger 2001-2017
</metadata>
<g transform="translate(0.000000,240.000000) scale(0.100000,-0.100000)"
fill="#000000" stroke="none">
<path d="M1139 2396 c-2 -2 -22 -6 -44 -9 -112 -16 -227 -55 -342 -117 -54
-29 -73 -35 -77 -25 -7 20 -47 43 -81 48 -43 6 -101 -28 -120 -72 -44 -97 -51
-106 -129 -146 -62 -32 -79 -46 -95 -78 -15 -30 -17 -45 -10 -59 5 -10 7 -18
4 -18 -13 0 30 -59 52 -71 28 -15 28 -19 3 -69 -20 -39 -63 -178 -74 -240 -4
-19 -9 -46 -11 -60 -7 -37 -7 -231 0 -260 3 -14 7 -39 9 -56 2 -16 6 -40 10
-51 7 -23 -21 -48 -79 -71 -35 -15 -65 -61 -65 -103 0 -63 22 -83 168 -158
l138 -70 57 -113 57 -113 -2 -121 c-1 -134 -2 -131 86 -213 21 -20 45 -42 52
-48 7 -7 15 -13 18 -13 4 0 23 -11 44 -23 20 -13 65 -33 100 -45 60 -20 83
-21 440 -21 416 -1 443 2 557 62 34 18 91 63 131 103 l71 71 2 138 c2 135 1
137 -24 161 -14 12 -25 25 -25 28 0 2 21 26 48 53 98 101 180 227 224 348 35
94 43 119 53 170 3 17 8 41 12 55 12 49 10 253 -4 333 -44 253 -182 487 -383
652 -113 92 -292 173 -465 211 -35 7 -299 16 -306 10z"/>
</g>
</svg>
